<?xml version="1.0" standalone="no"?>
<!DOCTYPE svg PUBLIC "-//W3C//DTD SVG 20010904//EN"
 "http://www.w3.org/TR/2001/REC-SVG-20010904/DTD/svg10.dtd">
<svg version="1.0" xmlns="http://www.w3.org/2000/svg"
 width="200.000000pt" height="200.000000pt" viewBox="0 0 200.000000 200.000000"
 preserveAspectRatio="xMidYMid meet">
<metadata>
Created by potrace 1.11, written by Peter Selinger 2001-2013
</metadata>
<g transform="translate(0.000000,200.000000) scale(0.100000,-0.100000)"
fill="#000000" stroke="none">
<path d="M1195 1867 c-97 -55 -122 -175 -53 -262 26 -33 91 -64 136 -65 62 0
139 54 161 113 57 149 -106 292 -244 214z m141 -56 c79 -48 63 -177 -25 -201
-96 -26 -178 65 -137 152 31 64 102 86 162 49z"/>
<path d="M1225 1765 c-14 -13 -25 -36 -25 -50 0 -35 42 -75 78 -75 17 0 37 9
50 23 67 72 -34 172 -103 102z"/>
<path d="M815 1590 c-126 -66 -234 -121 -239 -123 -5 -2 11 -22 37 -46 46 -42
87 -124 87 -172 0 -11 3 -19 8 -17 13 6 74 45 249 160 95 62 180 118 190 124
16 10 14 15 -24 57 -27 29 -47 62 -54 91 -6 26 -14 46 -18 45 -3 0 -109 -54
-236 -119z"/>
<path d="M1412 1555 c-18 -18 -51 -38 -73 -44 l-40 -12 30 -54 c28 -49 30 -60
25 -117 -4 -51 -2 -70 14 -101 19 -36 19 -39 3 -105 -10 -37 -21 -77 -25 -89
-6 -20 -1 -24 61 -42 37 -11 106 -29 153 -41 47 -11 93 -23 103 -26 16 -5 17
-3 7 16 -10 19 -39 35 -166 90 l-31 14 19 46 c17 41 24 47 65 58 27 8 57 25
75 44 26 28 32 30 75 24 26 -3 48 -8 50 -10 3 -2 0 -39 -6 -81 -14 -99 -14
-117 2 -139 11 -15 17 -2 45 101 53 196 56 214 44 222 -6 4 -46 15 -88 26 -69
17 -78 22 -104 61 -28 39 -80 74 -113 74 -9 0 -30 27 -49 60 -18 33 -35 59
-38 59 -3 -1 -20 -16 -38 -34z m143 -159 c39 -17 57 -45 57 -92 0 -71 -70
-120 -133 -94 -89 37 -92 148 -5 186 39 17 40 17 81 0z"/>
<path d="M1470 1350 c-11 -11 -20 -31 -20 -45 0 -29 32 -65 59 -65 28 0 71 39
71 64 0 30 -35 66 -65 66 -14 0 -34 -9 -45 -20z"/>
<path d="M378 1446 c-64 -17 -111 -56 -142 -118 -33 -66 -34 -126 -2 -194 79
-169 323 -169 402 -1 81 175 -73 363 -258 313z m110 -90 c51 -27 75 -62 80
-119 4 -46 1 -57 -23 -85 -68 -81 -152 -81 -219 -2 -86 102 44 267 162 206z"/>
<path d="M368 1301 c-27 -24 -33 -36 -33 -71 0 -35 6 -47 33 -71 44 -40 93
-40 133 0 62 62 20 171 -65 171 -25 0 -45 -9 -68 -29z"/>
<path d="M690 1165 c0 -55 -90 -154 -167 -184 l-42 -16 75 -90 c42 -50 96
-114 121 -144 l46 -54 12 41 c27 89 98 167 181 197 27 10 53 22 57 26 8 6
-259 239 -275 239 -5 0 -8 -7 -8 -15z"/>
<path d="M913 870 c-95 -47 -145 -127 -145 -230 0 -243 303 -353 457 -166 45
56 55 85 55 165 0 89 -34 159 -99 206 -86 63 -176 71 -268 25z m205 -110 c79
-57 82 -171 7 -240 -23 -22 -35 -25 -102 -25 -75 0 -75 0 -109 39 -69 79 -58
166 30 234 44 34 121 31 174 -8z"/>
<path d="M984 746 c-69 -30 -95 -110 -55 -170 36 -54 94 -70 150 -42 39 21 61
58 61 106 0 53 -22 84 -71 104 -47 19 -46 19 -85 2z"/>
<path d="M719 383 c-24 -53 -45 -100 -47 -105 -2 -4 156 -8 352 -8 196 0 356
3 356 8 0 4 -22 51 -48 104 l-47 97 -40 -42 c-64 -67 -125 -92 -220 -92 -67 0
-88 5 -131 27 -27 15 -67 45 -87 67 -20 23 -38 41 -40 41 -2 0 -23 -44 -48
-97z"/>
<path d="M500 150 l0 -80 528 2 527 3 3 78 3 77 -531 0 -530 0 0 -80z"/>
</g>
</svg>
